<svg version="1.1" xmlns="http://www.w3.org/2000/svg" xmlns:xlink="http://www.w3.org/1999/xlink" width="540" height="428"><defs/><g><g transform="translate(-662,-318) scale(1,1)"><rect fill="#C0C0C0" stroke="none" x="679" y="335" width="208" height="15" opacity="0.2"/></g><g transform="translate(-662,-318) scale(1,1)"><rect fill="#C0C0C0" stroke="none" x="679" y="349" width="520" height="258" opacity="0.2"/></g><g transform="translate(-662,-318) scale(1,1)"><rect fill="#ffffff" stroke="none" x="672" y="343" width="520" height="257"/></g><g transform="translate(-662,-318) scale(1,1)"><path fill="none" stroke="#000000" d="M 672 343 L 1192 343 L 1192 600 L 672 600 L 672 343 Z Z" stroke-miterlimit="10"/></g><g transform="translate(-662,-318) scale(1,1)"><rect fill="#ffffff" stroke="none" x="672" y="328" width="208" height="15"/></g><g transform="translate(-662,-318) scale(1,1)"><path fill="none" stroke="#000000" d="M 672 328 L 880 328 L 880 343 L 672 343 L 672 328 Z Z" stroke-miterlimit="10"/></g><g transform="translate(-662,-318) scale(1,1)"><rect fill="#ffffff" stroke="none" x="672" y="342" width="520" height="258"/></g><g transform="translate(-662,-318) scale(1,1)"><path fill="none" stroke="#000000" d="M 672 342 L 1192 342 L 1192 600 L 672 600 L 672 342 Z Z" stroke-miterlimit="10"/></g><g transform="translate(-662,-318) scale(1,1)"><g><path fill="none" stroke="none"/><text fill="#000000" stroke="none" font-family="Arial" font-size="13px" font-style="normal" font-weight="bold" text-decoration="none" x="920.5" y="362.5">App</text></g></g><g transform="translate(-662,-318) scale(1,1)"><rect fill="#C0C0C0" stroke="none" x="1039" y="527" width="57.200000000000045" height="15" opacity="0.2"/></g><g transform="translate(-662,-318) scale(1,1)"><rect fill="#C0C0C0" stroke="none" x="1039" y="541" width="143" height="50" opacity="0.2"/></g><g transform="translate(-662,-318) scale(1,1)"><rect fill="#ffffff" stroke="none" x="1032" y="535" width="143" height="49"/></g><g transform="translate(-662,-318) scale(1,1)"><path fill="none" stroke="#000000" d="M 1032 535 L 1175 535 L 1175 584 L 1032 584 L 1032 535 Z Z" stroke-miterlimit="10"/></g><g transform="translate(-662,-318) scale(1,1)"><rect fill="#ffffff" stroke="none" x="1032" y="520" width="57.200000000000045" height="15"/></g><g transform="translate(-662,-318) scale(1,1)"><path fill="none" stroke="#000000" d="M 1032 520 L 1089.2 520 L 1089.2 535 L 1032 535 L 1032 520 Z Z" stroke-miterlimit="10"/></g><g transform="translate(-662,-318) scale(1,1)"><rect fill="#ffffff" stroke="none" x="1032" y="534" width="143" height="50"/></g><g transform="translate(-662,-318) scale(1,1)"><path fill="none" stroke="#000000" d="M 1032 534 L 1175 534 L 1175 584 L 1032 584 L 1032 534 Z Z" stroke-miterlimit="10"/></g><g transform="translate(-662,-318) scale(1,1)"><g><path fill="none" stroke="none"/><text fill="#000000" stroke="none" font-family="Arial" font-size="13px" font-style="normal" font-weight="bold" text-decoration="none" x="1050.5" y="554.5">OGameOfThrones</text></g></g><g transform="translate(-662,-318) scale(1,1)"><rect fill="#C0C0C0" stroke="none" x="695" y="527" width="44.799999999999955" height="15" opacity="0.2"/></g><g transform="translate(-662,-318) scale(1,1)"><rect fill="#C0C0C0" stroke="none" x="695" y="541" width="112" height="50" opacity="0.2"/></g><g transform="translate(-662,-318) scale(1,1)"><rect fill="#ffffff" stroke="none" x="688" y="535" width="112" height="49"/></g><g transform="translate(-662,-318) scale(1,1)"><path fill="none" stroke="#000000" d="M 688 535 L 800 535 L 800 584 L 688 584 L 688 535 Z Z" stroke-miterlimit="10"/></g><g transform="translate(-662,-318) scale(1,1)"><rect fill="#ffffff" stroke="none" x="688" y="520" width="44.799999999999955" height="15"/></g><g transform="translate(-662,-318) scale(1,1)"><path fill="none" stroke="#000000" d="M 688 520 L 732.8 520 L 732.8 535 L 688 535 L 688 520 Z Z" stroke-miterlimit="10"/></g><g transform="translate(-662,-318) scale(1,1)"><rect fill="#ffffff" stroke="none" x="688" y="534" width="112" height="50"/></g><g transform="translate(-662,-318) scale(1,1)"><path fill="none" stroke="#000000" d="M 688 534 L 800 534 L 800 584 L 688 584 L 688 534 Z Z" stroke-miterlimit="10"/></g><g transform="translate(-662,-318) scale(1,1)"><g><path fill="none" stroke="none"/><text fill="#000000" stroke="none" font-family="Arial" font-size="13px" font-style="normal" font-weight="bold" text-decoration="none" x="712" y="554.5">Shiba Chef</text></g></g><g transform="translate(-662,-318) scale(1,1)"><rect fill="#C0C0C0" stroke="none" x="879" y="527" width="44.799999999999955" height="15" opacity="0.2"/></g><g transform="translate(-662,-318) scale(1,1)"><rect fill="#C0C0C0" stroke="none" x="879" y="541" width="112" height="50" opacity="0.2"/></g><g transform="translate(-662,-318) scale(1,1)"><rect fill="#ffffff" stroke="none" x="872" y="535" width="112" height="49"/></g><g transform="translate(-662,-318) scale(1,1)"><path fill="none" stroke="#000000" d="M 872 535 L 984 535 L 984 584 L 872 584 L 872 535 Z Z" stroke-miterlimit="10"/></g><g transform="translate(-662,-318) scale(1,1)"><rect fill="#ffffff" stroke="none" x="872" y="520" width="44.799999999999955" height="15"/></g><g transform="translate(-662,-318) scale(1,1)"><path fill="none" stroke="#000000" d="M 872 520 L 916.8 520 L 916.8 535 L 872 535 L 872 520 Z Z" stroke-miterlimit="10"/></g><g transform="translate(-662,-318) scale(1,1)"><rect fill="#ffffff" stroke="none" x="872" y="534" width="112" height="50"/></g><g transform="translate(-662,-318) scale(1,1)"><path fill="none" stroke="#000000" d="M 872 534 L 984 534 L 984 584 L 872 584 L 872 534 Z Z" stroke-miterlimit="10"/></g><g transform="translate(-662,-318) scale(1,1)"><g><path fill="none" stroke="none"/><text fill="#000000" stroke="none" font-family="Arial" font-size="13px" font-style="normal" font-weight="bold" text-decoration="none" x="897" y="554.5">Dashboard</text></g></g><g transform="translate(-662,-318) scale(1,1)"><rect fill="#C0C0C0" stroke="none" x="879" y="391" width="44.799999999999955" height="15" opacity="0.2"/></g><g transform="translate(-662,-318) scale(1,1)"><rect fill="#C0C0C0" stroke="none" x="879" y="405" width="112" height="49" opacity="0.2"/></g><g transform="translate(-662,-318) scale(1,1)"><rect fill="#ffffff" stroke="none" x="872" y="399" width="112" height="48"/></g><g transform="translate(-662,-318) scale(1,1)"><path fill="none" stroke="#000000" d="M 872 399 L 984 399 L 984 447 L 872 447 L 872 399 Z Z" stroke-miterlimit="10"/></g><g transform="translate(-662,-318) scale(1,1)"><rect fill="#ffffff" stroke="none" x="872" y="384" width="44.799999999999955" height="15"/></g><g transform="translate(-662,-318) scale(1,1)"><path fill="none" stroke="#000000" d="M 872 384 L 916.8 384 L 916.8 399 L 872 399 L 872 384 Z Z" stroke-miterlimit="10"/></g><g transform="translate(-662,-318) scale(1,1)"><rect fill="#ffffff" stroke="none" x="872" y="398" width="112" height="49"/></g><g transform="translate(-662,-318) scale(1,1)"><path fill="none" stroke="#000000" d="M 872 398 L 984 398 L 984 447 L 872 447 L 872 398 Z Z" stroke-miterlimit="10"/></g><g transform="translate(-662,-318) scale(1,1)"><g><path fill="none" stroke="none"/><text fill="#000000" stroke="none" font-family="Arial" font-size="13px" font-style="normal" font-weight="bold" text-decoration="none" x="914.5" y="418.5">Auth</text></g></g><g transform="translate(-662,-318) scale(1,1)"><path fill="none" stroke="#000000" d="M 736 520 L 736 480 L 928 480 L 928 447" stroke-miterlimit="10" stroke-dasharray="3"/></g><g transform="translate(-662,-318) scale(1,1)"><path fill="none" stroke="#000000" d="M 932.209517756016 457.16267485762415 L 928 447 L 923.790482243984 457.16267485762415" stroke-miterlimit="10"/></g><g transform="translate(-662,-318) scale(1,1)"><path fill="none" stroke="#000000" d="M 928 519 L 928 448" stroke-miterlimit="10" stroke-dasharray="3"/></g><g transform="translate(-662,-318) scale(1,1)"><path fill="none" stroke="#000000" d="M 932.209517756016 458.16267485762415 L 928 448 L 923.790482243984 458.16267485762415" stroke-miterlimit="10"/></g><g transform="translate(-662,-318) scale(1,1)"><path fill="none" stroke="#000000" d="M 1103 520 L 1103 480 L 928 480 L 928 447" stroke-miterlimit="10" stroke-dasharray="3"/></g><g transform="translate(-662,-318) scale(1,1)"><path fill="none" stroke="#000000" d="M 932.209517756016 457.16267485762415 L 928 447 L 923.790482243984 457.16267485762415" stroke-miterlimit="10"/></g><g transform="translate(-662,-318) scale(1,1)"><path fill="none" stroke="#000000" d="M 801 552 L 871 552" stroke-miterlimit="10" stroke-dasharray="3"/></g><g transform="translate(-662,-318) scale(1,1)"><path fill="none" stroke="#000000" d="M 860.8373251423759 556.209517756016 L 871 552 L 860.8373251423758 547.790482243984" stroke-miterlimit="10"/></g><g transform="translate(-662,-318) scale(1,1)"><path fill="none" stroke="#000000" d="M 1031 552 L 985 552" stroke-miterlimit="10" stroke-dasharray="3"/></g><g transform="translate(-662,-318) scale(1,1)"><path fill="none" stroke="#000000" d="M 995.1626748576241 547.790482243984 L 985 552 L 995.1626748576241 556.209517756016" stroke-miterlimit="10"/></g><g transform="translate(-662,-318) scale(1,1)"><rect fill="#C0C0C0" stroke="none" x="871" y="679" width="54.39999999999998" height="15" opacity="0.2"/></g><g transform="translate(-662,-318) scale(1,1)"><rect fill="#C0C0C0" stroke="none" x="871" y="693" width="136" height="50" opacity="0.2"/></g><g transform="translate(-662,-318) scale(1,1)"><rect fill="#ffffff" stroke="none" x="864" y="687" width="136" height="49"/></g><g transform="translate(-662,-318) scale(1,1)"><path fill="none" stroke="#000000" d="M 864 687 L 1000 687 L 1000 736 L 864 736 L 864 687 Z Z" stroke-miterlimit="10"/></g><g transform="translate(-662,-318) scale(1,1)"><rect fill="#ffffff" stroke="none" x="864" y="672" width="54.39999999999998" height="15"/></g><g transform="translate(-662,-318) scale(1,1)"><path fill="none" stroke="#000000" d="M 864 672 L 918.4 672 L 918.4 687 L 864 687 L 864 672 Z Z" stroke-miterlimit="10"/></g><g transform="translate(-662,-318) scale(1,1)"><rect fill="#ffffff" stroke="none" x="864" y="686" width="136" height="50"/></g><g transform="translate(-662,-318) scale(1,1)"><path fill="none" stroke="#000000" d="M 864 686 L 1000 686 L 1000 736 L 864 736 L 864 686 Z Z" stroke-miterlimit="10"/></g><g transform="translate(-662,-318) scale(1,1)"><path fill="none" stroke="#000000" d="M 909.4 675 L 903.4 682 L 915.4 682 L 909.4 675" stroke-miterlimit="10"/></g><g transform="translate(-662,-318) scale(1,1)"><g><path fill="none" stroke="none"/><text fill="#000000" stroke="none" font-family="Arial" font-size="13px" font-style="normal" font-weight="bold" text-decoration="none" x="897" y="706.5">SqlAlchemy</text></g></g><g transform="translate(-662,-318) scale(1,1)"><path fill="none" stroke="#000000" d="M 932 671 L 932 601" stroke-miterlimit="10"/></g><g transform="translate(-662,-318) scale(1,1)"><path fill="#FFFFFF" stroke="none" d="M 925 608 C 925 604.1340064 928.1340064 601 932 601 C 935.8659936 601 939 604.1340064 939 608 C 939 611.8659936 935.8659936 615 932 615 C 928.1340064 615 925 611.8659936 925 608 Z"/></g><g transform="translate(-662,-318) scale(1,1)"><path fill="none" stroke="#000000" d="M 925 608 C 925 604.1340064 928.1340064 601 932 601 C 935.8659936 601 939 604.1340064 939 608 C 939 611.8659936 935.8659936 615 932 615 C 928.1340064 615 925 611.8659936 925 608 Z" stroke-miterlimit="10"/></g><g transform="translate(-662,-318) scale(1,1)"><path fill="none" stroke="#000000" d="M 932 615 L 932 601" stroke-miterlimit="10"/></g><g transform="translate(-662,-318) scale(1,1)"><path fill="none" stroke="#000000" d="M 939 608 L 925 608" stroke-miterlimit="10"/></g><g transform="translate(-662,-318) scale(1,1)"><rect fill="#C0C0C0" stroke="none" x="1079" y="359" width="41.200000000000045" height="15" opacity="0.2"/></g><g transform="translate(-662,-318) scale(1,1)"><rect fill="#C0C0C0" stroke="none" x="1079" y="373" width="103" height="41" opacity="0.2"/></g><g transform="translate(-662,-318) scale(1,1)"><rect fill="#ffffff" stroke="none" x="1072" y="367" width="103" height="40"/></g><g transform="translate(-662,-318) scale(1,1)"><path fill="none" stroke="#000000" d="M 1072 367 L 1175 367 L 1175 407 L 1072 407 L 1072 367 Z Z" stroke-miterlimit="10"/></g><g transform="translate(-662,-318) scale(1,1)"><rect fill="#ffffff" stroke="none" x="1072" y="352" width="41.200000000000045" height="15"/></g><g transform="translate(-662,-318) scale(1,1)"><path fill="none" stroke="#000000" d="M 1072 352 L 1113.2 352 L 1113.2 367 L 1072 367 L 1072 352 Z Z" stroke-miterlimit="10"/></g><g transform="translate(-662,-318) scale(1,1)"><rect fill="#ffffff" stroke="none" x="1072" y="366" width="103" height="41"/></g><g transform="translate(-662,-318) scale(1,1)"><path fill="none" stroke="#000000" d="M 1072 366 L 1175 366 L 1175 407 L 1072 407 L 1072 366 Z Z" stroke-miterlimit="10"/></g><g transform="translate(-662,-318) scale(1,1)"><g><path fill="none" stroke="none"/><text fill="#000000" stroke="none" font-family="Arial" font-size="13px" font-style="normal" font-weight="bold" text-decoration="none" x="1109.5" y="386.5">docs</text></g></g></g></svg>