<?xml version="1.0" encoding="utf-8"?>
<!-- Generator: Adobe Illustrator 16.0.0, SVG Export Plug-In . SVG Version: 6.00 Build 0)  -->
<!DOCTYPE svg PUBLIC "-//W3C//DTD SVG 1.1//EN" "http://www.w3.org/Graphics/SVG/1.1/DTD/svg11.dtd">
<svg version="1.1" id="Laag_1" xmlns="http://www.w3.org/2000/svg" xmlns:xlink="http://www.w3.org/1999/xlink" x="0px" y="0px"
	 width="120px" height="120px" viewBox="0 0 120 120" enable-background="new 0 0 120 120" xml:space="preserve">
<ellipse fill="#754C24" cx="32.123" cy="71.563" rx="1.593" ry="2.285"/>
<g>
	<g>
		<path fill="#603813" d="M35.735,17.417c-0.806,0-1.602,0.058-2.387,0.17c-0.517,0.336-1.088,0.631-1.743,0.858
			c-0.95,0.33-1.999,0.502-3.081,0.569c-2.374,1.079-4.584,2.677-6.565,4.699c-1.49,1.983-2.754,4.18-3.99,6.227
			c-1.286,2.13-2.963,5.14-3.98,7.961c-1.181,3.979-1.837,8.346-1.837,12.933c0,10.253,3.262,19.423,8.392,25.553
			c7.275,1.677,15.588,5.401,22.368,2.82c2.871-1.093,5.545-2.34,8.389-3.279c4.914-6.124,8.019-15.092,8.019-25.094
			C59.318,32.378,48.76,17.417,35.735,17.417z"/>
		<path fill="#603813" d="M76.884,29.34c-0.635-2.893-1.419-5.212-1.088-7.787c-0.344-1.011-0.757-1.984-1.206-2.933
			c-0.567-0.248-1.121-0.625-1.64-1.168c-2.489-2.604-4.555-5.753-8.134-6.936c-3.496-1.156-7.105-1.838-10.66-2.778
			c-0.937-0.248-1.662-0.683-2.214-1.227C50.79,6.708,49.548,6.555,48.628,5.9c-0.117-0.083-0.237-0.167-0.356-0.252
			c-0.802-0.043-1.583-0.21-2.347-0.517c-2.092,0.653-4.062,1.613-5.886,2.81c-0.12,0.41-0.303,0.805-0.57,1.166
			c-2.522,3.407-3.386,7.783-7.864,9.339c-0.247,0.085-0.511,0.144-0.769,0.21c-1.724,3.653-2.71,7.788-2.71,12.178
			c0,14.773,11.012,26.75,24.597,26.75c9.373,0,17.519-5.703,21.67-14.091c0.041-0.396,0.116-0.805,0.271-1.239
			c0.332-0.929,0.701-1.812,1.109-2.677C76.652,36.041,77.58,32.513,76.884,29.34z"/>
		<path fill="#603813" d="M74.642,45.473c-0.368-0.903-0.418-1.988,0.022-3.219c0.332-0.929,0.701-1.812,1.109-2.677
			c0.719-2.889,1.454-5.77,1.324-8.46L39.025,80.022c1.335-0.1,2.639-0.342,3.886-0.816c4.029-1.533,7.663-3.383,11.937-4.236
			c2.39-0.478,4.475-1.125,6.489-2.045c6.064-6.094,10.778-14.301,13.469-23.764C74.565,47.967,74.533,46.733,74.642,45.473z"/>
	</g>
	<line fill="none" stroke="#42210B" stroke-miterlimit="10" x1="29.142" y1="19.122" x2="13.167" y2="50.75"/>
	<path fill="none" stroke="#42210B" stroke-miterlimit="10" d="M37.638,13.078C29,29,21,45,13.603,60.666"/>
	<path fill="none" stroke="#42210B" stroke-miterlimit="10" d="M46.811,5.776C36,26,27,47,16.068,66.645"/>
	<path fill="none" stroke="#42210B" stroke-miterlimit="10" d="M52.37,7.649c-8.741,17.307-17.482,34.613-26.223,51.919
		c-2.317,4.588-4.634,9.176-6.952,13.764"/>
	<path fill="none" stroke="#42210B" stroke-miterlimit="10" d="M57.782,9.831C49.041,27.137,40.301,44.443,31.559,61.75
		c-2.317,4.588-4.634,9.176-6.952,13.764"/>
	<path fill="none" stroke="#42210B" stroke-miterlimit="10" d="M63.398,11.359c-8.741,17.307-17.481,34.613-26.223,51.919
		c-2.317,4.588-4.634,9.176-6.952,13.764"/>
	<path fill="none" stroke="#42210B" stroke-miterlimit="10" d="M68.188,14.257c-8.547,16.922-17.093,33.844-25.641,50.766
		c-2.266,4.486-4.531,8.973-6.797,13.458"/>
	<path fill="none" stroke="#42210B" stroke-miterlimit="10" d="M72.162,18.638c-7.815,15.474-15.63,30.948-23.446,46.421
		c-2.072,4.102-4.143,8.204-6.215,12.305"/>
	<path fill="none" stroke="#42210B" stroke-miterlimit="10" d="M75.152,26.124c-6.28,12.436-12.561,24.871-18.842,37.306
		c-1.665,3.296-3.33,6.593-4.995,9.888"/>
	<path fill="none" stroke="#42210B" stroke-miterlimit="10" d="M76.479,34.936c-5.045,9.989-10.09,19.979-15.136,29.968
		c-1.338,2.647-2.675,5.296-4.013,7.942"/>
	<ellipse fill="#754C24" cx="21.873" cy="54.35" rx="3.344" ry="0.711"/>
	<ellipse fill="#754C24" cx="49.614" cy="63.398" rx="4.084" ry="1.387"/>
	<ellipse fill="#754C24" cx="35.247" cy="35.536" rx="1.718" ry="0.843"/>
	<ellipse fill="#754C24" cx="64.873" cy="28.405" rx="3.344" ry="1.382"/>
	<ellipse fill="#754C24" cx="55.873" cy="43.35" rx="3.344" ry="0.711"/>
	
		<ellipse transform="matrix(0.6482 0.7615 -0.7615 0.6482 28.9384 -29.9406)" fill="#754C24" cx="46.873" cy="16.349" rx="3.343" ry="0.711"/>
</g>
<g>
	<g>
		<g>
			<g id="XMLID_1_">
				<g>
					<polygon fill="#FBB03B" points="99.353,43.598 101.291,45.617 101.312,45.637 62.707,85.716 60.688,83.696 99.312,43.598 					
						"/>
				</g>
				<g>
				</g>
			</g>
		</g>
		<g>
			<g id="XMLID_2_">
				<g>
					<polygon fill="#F7931E" points="60.696,83.716 62.709,85.729 62.709,87.284 60.696,85.336 					"/>
				</g>
				<g>
				</g>
			</g>
		</g>
		<line fill="none" x1="62.717" y1="85.724" x2="101.341" y2="45.625"/>
	</g>
	<g>
		<g id="XMLID_3_">
			<g>
				<polygon fill="#F49C4D" points="62.709,85.729 101.3,45.682 101.3,47.318 62.742,87.316 62.709,87.284 				"/>
			</g>
			<g>
			</g>
		</g>
	</g>
</g>
<g>
	<g>
		<g>
			<g id="XMLID_6_">
				<g>
					<polygon fill="#FBB03B" points="90.986,37.076 93.439,38.424 93.465,38.437 68.598,88.219 66.067,86.895 90.947,37.088 					
						"/>
				</g>
				<g>
				</g>
			</g>
		</g>
		<g>
			<g id="XMLID_5_">
				<g>
					<polygon fill="#F7931E" points="68.589,88.231 69.037,89.721 66.534,88.463 66.066,86.912 					"/>
				</g>
				<g>
				</g>
			</g>
		</g>
		<line fill="none" x1="68.596" y1="88.239" x2="93.476" y2="38.433"/>
	</g>
	<g>
		<g id="XMLID_4_">
			<g>
				<polygon fill="#F49C4D" points="93.941,40.046 69.078,89.742 69.037,89.721 68.589,88.231 93.437,38.489 				"/>
			</g>
			<g>
			</g>
		</g>
	</g>
</g>
<g>
	<g>
		<g>
			<g id="XMLID_9_">
				<g>
					<polygon fill="#FBB03B" points="102.355,47.589 104.294,49.608 104.314,49.628 65.71,89.706 63.69,87.688 102.315,47.589 					
						"/>
				</g>
				<g>
				</g>
			</g>
		</g>
		<g>
			<g id="XMLID_8_">
				<g>
					<polygon fill="#F7931E" points="65.716,91.286 63.703,89.338 63.703,87.718 65.716,89.73 					"/>
				</g>
				<g>
				</g>
			</g>
		</g>
		<line fill="none" x1="65.717" y1="89.724" x2="104.341" y2="49.625"/>
	</g>
	<g>
		<g id="XMLID_7_">
			<g>
				<polygon fill="#F49C4D" points="104.307,51.32 65.749,91.318 65.716,91.286 65.716,89.73 104.307,49.684 				"/>
			</g>
			<g>
			</g>
		</g>
	</g>
</g>
<g>
	<g>
		<g>
			<g id="XMLID_12_">
				<g>
					<polygon fill="#FBB03B" points="108.089,68.988 55.545,87.312 54.656,84.6 107.226,66.267 107.262,66.284 108.079,68.961 					
						"/>
				</g>
				<g>
				</g>
			</g>
		</g>
		<g>
			<g id="XMLID_11_">
				<g>
					<polygon fill="#F7931E" points="54.644,84.592 55.531,87.298 54.829,88.685 53.912,86.038 					"/>
				</g>
				<g>
				</g>
			</g>
		</g>
		<line fill="none" x1="55.539" y1="87.319" x2="108.108" y2="68.986"/>
	</g>
	<g>
		<g id="XMLID_10_">
			<g>
				<polygon fill="#F49C4D" points="55.531,87.298 108.048,68.994 107.309,70.455 54.843,88.729 54.829,88.685 				"/>
			</g>
			<g>
			</g>
		</g>
	</g>
</g>
<g>
	<g>
		<g>
			<g id="XMLID_15_">
				<g>
					<polygon fill="#FBB03B" points="103.322,67.607 64.697,107.705 62.678,105.707 101.303,65.608 101.343,65.608 103.302,67.607 
											"/>
				</g>
				<g>
				</g>
			</g>
		</g>
		<g>
			<g id="XMLID_14_">
				<g>
					<polygon fill="#F7931E" points="64.709,107.729 64.709,109.283 62.696,107.336 62.696,105.715 					"/>
				</g>
				<g>
				</g>
			</g>
		</g>
		<line fill="none" x1="64.717" y1="107.724" x2="103.341" y2="67.625"/>
	</g>
	<g>
		<g id="XMLID_13_">
			<g>
				<polygon fill="#F49C4D" points="103.3,69.317 64.742,109.315 64.709,109.283 64.709,107.729 103.3,67.681 				"/>
			</g>
			<g>
			</g>
		</g>
	</g>
</g>
<g>
	<g>
		<g>
			<g id="XMLID_18_">
				<g>
					<polygon fill="#FBB03B" points="56.364,81.115 78.442,101.152 78.443,101.174 77.394,102.243 77.383,102.255 55.315,82.228 
											"/>
				</g>
				<g>
				</g>
			</g>
		</g>
		<g>
			<g id="XMLID_17_">
				<g>
					<polygon fill="#F7931E" points="55.306,82.205 54.475,82.238 54.474,82.229 55.484,81.121 56.352,81.104 					"/>
				</g>
				<g>
				</g>
			</g>
		</g>
		<line fill="none" x1="55.311" y1="82.223" x2="77.39" y2="102.26"/>
	</g>
	<g>
		<g id="XMLID_16_">
			<g>
				<polygon fill="#F49C4D" points="77.349,102.225 76.481,102.251 54.449,82.257 54.474,82.229 55.306,82.205 				"/>
			</g>
			<g>
			</g>
		</g>
	</g>
</g>
<g>
	<g>
		<g>
			<g id="XMLID_21_">
				<g>
					<polygon fill="#FBB03B" points="93.759,66.305 94.624,67.944 94.633,67.961 62.736,86.418 61.819,84.764 93.733,66.297 					
						"/>
				</g>
				<g>
				</g>
			</g>
		</g>
		<g>
			<g id="XMLID_20_">
				<g>
					<polygon fill="#F7931E" points="62.724,86.424 62.439,87.414 61.514,85.807 61.81,84.774 					"/>
				</g>
				<g>
				</g>
			</g>
		</g>
		<line fill="none" x1="62.737" y1="86.43" x2="94.65" y2="67.963"/>
	</g>
	<g>
		<g id="XMLID_19_">
			<g>
				<polygon fill="#F49C4D" points="94.605,67.983 94.307,69.025 62.454,87.44 62.439,87.414 62.724,86.424 				"/>
			</g>
			<g>
			</g>
		</g>
	</g>
</g>
<g>
	<g>
		<g>
			<g id="XMLID_24_">
				<g>
					<polygon fill="#FBB03B" points="97.206,109.203 94.502,109.926 94.475,109.935 78.001,56.782 80.744,55.987 97.226,109.168 
											"/>
				</g>
				<g>
				</g>
			</g>
		</g>
		<g>
			<g id="XMLID_23_">
				<g>
					<polygon fill="#F7931E" points="76.641,56.026 79.318,55.203 80.737,55.984 78.003,56.776 					"/>
				</g>
				<g>
				</g>
			</g>
		</g>
		<line fill="none" x1="77.982" y1="56.768" x2="94.464" y2="109.947"/>
	</g>
	<g>
		<g id="XMLID_22_">
			<g>
				<polygon fill="#F49C4D" points="78.003,56.776 94.455,109.902 93.036,109.12 93.022,109.112 76.597,56.039 76.641,56.026 				
					"/>
			</g>
			<g>
			</g>
		</g>
	</g>
</g>
<g>
	<g>
		<g>
			<g id="XMLID_27_">
				<g>
					<polygon fill="#FBB03B" points="91.258,88.642 53,92.995 52.813,91.028 91.091,86.673 91.112,86.69 91.256,88.622 					"/>
				</g>
				<g>
				</g>
			</g>
		</g>
		<g>
			<g id="XMLID_26_">
				<g>
					<polygon fill="#F7931E" points="52.821,91.021 53.007,92.982 52.322,93.812 52.107,91.886 					"/>
				</g>
				<g>
				</g>
			</g>
		</g>
		<line fill="none" x1="53" y1="92.989" x2="91.276" y2="88.634"/>
	</g>
	<g>
		<g id="XMLID_25_">
			<g>
				<polygon fill="#F49C4D" points="53.007,92.982 91.244,88.64 90.522,89.513 52.325,93.844 52.322,93.812 				"/>
			</g>
			<g>
			</g>
		</g>
	</g>
</g>
<rect x="46.562" y="62.792" fill="none" width="7.281" height="3.016"/>
<text transform="matrix(1 0 0 1 46.562 63.8574)" fill="#603813" font-family="'MyriadPro-Regular'" font-size="1.5">bart is gay</text>
</svg>
