<?xml version="1.0" encoding="utf-8"?>
<!-- Generator: Adobe Illustrator 16.0.0, SVG Export Plug-In . SVG Version: 6.00 Build 0)  -->
<!DOCTYPE svg PUBLIC "-//W3C//DTD SVG 1.1//EN" "http://www.w3.org/Graphics/SVG/1.1/DTD/svg11.dtd">
<svg version="1.1" id="Laag_1" xmlns="http://www.w3.org/2000/svg" xmlns:xlink="http://www.w3.org/1999/xlink" x="0px" y="0px"
	 width="120px" height="120px" viewBox="0 0 120 120" enable-background="new 0 0 120 120" xml:space="preserve">
<g>
	<g>
		<g id="XMLID_1_">
			<g>
				<polygon fill="#B79400" points="90.815,44.112 92.991,59.735 26.798,87.399 28.029,71.566 28.353,70.932 				"/>
				<polygon fill="#E5B900" points="90.793,44.003 90.815,44.112 28.353,70.932 28.029,71.566 13.838,65.522 76.78,38.028 				"/>
				<polygon fill="#CCA500" points="28.029,71.566 26.798,87.399 3.847,78.302 13.838,65.522 				"/>
			</g>
			<g>
			</g>
		</g>
	</g>
	<g>
		<g id="XMLID_3_">
			<g>
				<polygon fill="#F7C903" points="28.029,71.566 22.75,80.511 11.467,75.643 13.838,65.522 				"/>
			</g>
			<g>
			</g>
		</g>
	</g>
</g>
<g>
	<g>
		<g id="XMLID_6_">
			<g>
				<polygon fill="#B79400" points="51.303,80.033 113.767,53.213 115.941,68.836 49.749,96.5 50.979,80.667 				"/>
				<polygon fill="#E5B900" points="99.73,47.129 113.744,53.104 113.767,53.213 51.303,80.033 50.979,80.667 36.789,74.624 				"/>
				<polygon fill="#CCA500" points="50.979,80.667 49.749,96.5 26.798,87.403 36.789,74.624 				"/>
			</g>
			<g>
			</g>
		</g>
	</g>
	<g>
		<g id="XMLID_5_">
			<g>
				<polygon fill="#896F00" points="114.451,58.198 50.725,83.944 50.979,80.667 51.303,80.033 113.89,53.159 				"/>
			</g>
			<g>
			</g>
		</g>
	</g>
	<g>
		<g id="XMLID_4_">
			<g>
				<polygon fill="#F7C903" points="36.789,74.624 50.979,80.667 45.7,89.611 34.418,84.744 				"/>
			</g>
			<g>
			</g>
		</g>
	</g>
</g>
<g>
	<g>
		<g id="XMLID_9_">
			<g>
				<polygon fill="#AD8D07" points="107.017,34.012 109.191,49.634 42.999,77.298 44.229,61.466 44.553,60.831 				"/>
				<polygon fill="#E5B900" points="106.994,33.903 107.017,34.012 44.553,60.831 44.229,61.466 30.039,55.422 92.98,27.927 				"/>
				<polygon fill="#AD8D07" points="44.229,61.466 42.999,77.298 20.048,68.201 30.039,55.422 				"/>
			</g>
			<g>
			</g>
		</g>
	</g>
	<g>
		<g id="XMLID_8_">
			<g>
				<polygon fill="#896F00" points="107.14,33.957 107.701,38.996 43.975,64.743 44.229,61.466 44.553,60.831 				"/>
			</g>
			<g>
			</g>
		</g>
	</g>
	<g>
		<g id="XMLID_7_">
			<g>
				<polygon fill="#F7C903" points="44.229,61.466 38.95,70.409 27.668,65.542 30.039,55.422 				"/>
			</g>
			<g>
			</g>
		</g>
	</g>
</g>
</svg>
