<?xml version="1.0" encoding="utf-8"?>
<!-- Generator: Adobe Illustrator 16.0.0, SVG Export Plug-In . SVG Version: 6.00 Build 0)  -->
<!DOCTYPE svg PUBLIC "-//W3C//DTD SVG 1.1//EN" "http://www.w3.org/Graphics/SVG/1.1/DTD/svg11.dtd">
<svg version="1.1" id="Laag_1" xmlns="http://www.w3.org/2000/svg" xmlns:xlink="http://www.w3.org/1999/xlink" x="0px" y="0px"
	 width="120px" height="120px" viewBox="0 0 120 120" enable-background="new 0 0 120 120" xml:space="preserve">
<g>
	<g>
		<g id="XMLID_1_">
			<g>
				<polygon fill="#CCCCCC" points="90.818,42.111 28.355,68.931 28.032,69.565 13.841,63.521 76.783,36.027 90.796,42.002 				"/>
				<polygon fill="#999999" points="28.355,68.931 90.818,42.111 92.994,57.734 26.801,85.397 28.032,69.565 				"/>
				<polygon fill="#CCCCCC" points="28.032,69.565 26.801,85.397 3.85,76.301 13.841,63.521 				"/>
			</g>
			<g>
			</g>
		</g>
	</g>
	<g>
		<g id="XMLID_3_">
			<g>
				<polygon fill="#E6E6E6" points="28.032,69.565 22.752,78.509 11.47,73.642 13.841,63.521 				"/>
			</g>
			<g>
			</g>
		</g>
	</g>
</g>
<g>
	<g>
		<g id="XMLID_6_">
			<g>
				<polygon fill="#CCCCCC" points="113.77,51.212 51.306,78.031 50.982,78.666 36.792,72.622 99.733,45.127 113.747,51.103 				"/>
				<polygon fill="#999999" points="51.306,78.031 113.77,51.212 115.944,66.835 49.751,94.499 50.982,78.666 				"/>
				<polygon fill="#CCCCCC" points="50.982,78.666 49.751,94.499 26.801,85.401 36.792,72.622 				"/>
			</g>
			<g>
			</g>
		</g>
	</g>
	<g>
		<g id="XMLID_5_">
			<g>
				<polygon fill="#808080" points="114.454,56.196 50.728,81.943 50.982,78.666 51.306,78.031 113.893,51.157 				"/>
			</g>
			<g>
			</g>
		</g>
	</g>
	<g>
		<g id="XMLID_4_">
			<g>
				<polygon fill="#E6E6E6" points="50.982,78.666 45.703,87.61 34.421,82.742 36.792,72.622 				"/>
			</g>
			<g>
			</g>
		</g>
	</g>
</g>
<g>
	<g>
		<g id="XMLID_9_">
			<g>
				<polygon fill="#999999" points="44.232,59.464 30.042,53.42 92.983,25.926 106.997,31.901 107.02,32.01 44.556,58.83 				"/>
				<polygon fill="#B3B3B3" points="44.556,58.83 107.02,32.01 109.194,47.633 43.001,75.297 44.232,59.464 				"/>
				<polygon fill="#B3B3B3" points="30.042,53.42 44.232,59.464 43.001,75.297 20.051,66.2 				"/>
			</g>
			<g>
			</g>
		</g>
	</g>
	<g>
		<g id="XMLID_8_">
			<g>
				<polygon fill="#666666" points="44.232,59.464 44.556,58.83 107.142,31.956 107.704,36.995 43.977,62.741 				"/>
			</g>
			<g>
			</g>
		</g>
	</g>
	<g>
		<g id="XMLID_7_">
			<g>
				<polygon fill="#CCCCCC" points="44.232,59.464 38.953,68.408 27.671,63.541 30.042,53.42 				"/>
			</g>
			<g>
			</g>
		</g>
	</g>
</g>
</svg>
