<?xml version="1.0" encoding="utf-8"?>
<!-- Generator: Adobe Illustrator 16.0.0, SVG Export Plug-In . SVG Version: 6.00 Build 0)  -->
<!DOCTYPE svg PUBLIC "-//W3C//DTD SVG 1.1//EN" "http://www.w3.org/Graphics/SVG/1.1/DTD/svg11.dtd">
<svg version="1.1" id="Laag_1" xmlns="http://www.w3.org/2000/svg" xmlns:xlink="http://www.w3.org/1999/xlink" x="0px" y="0px"
	 width="120px" height="120px" viewBox="0 0 120 120" enable-background="new 0 0 120 120" xml:space="preserve">
<g>
	<g>
		<rect x="11.241" y="58.044" fill="#603813" width="78.244" height="27.044"/>
		<ellipse fill="#754C24" cx="12.036" cy="71.566" rx="9.454" ry="13.521"/>
		<rect x="11.241" y="71.566" fill="#754C24" width="78.244" height="13.521"/>
		<ellipse fill="#603813" cx="89.473" cy="71.566" rx="9.454" ry="13.521"/>
		<ellipse fill="#603813" cx="10.746" cy="71.566" rx="9.454" ry="13.521"/>
		<ellipse fill="#754C24" cx="10.746" cy="71.566" rx="8.056" ry="11.522"/>
		<ellipse fill="#603813" cx="10.746" cy="71.566" rx="6.335" ry="9.062"/>
		<g>
			<defs>
				<ellipse id="SVGID_1_" cx="89.473" cy="71.566" rx="9.454" ry="13.522"/>
			</defs>
			<clipPath id="SVGID_2_">
				<use xlink:href="#SVGID_1_"  overflow="visible"/>
			</clipPath>
			<rect x="29.105" y="71.564" clip-path="url(#SVGID_2_)" fill="#754C24" width="78.244" height="13.523"/>
		</g>
		<ellipse fill="#754C24" cx="10.746" cy="71.919" rx="4.48" ry="6.408"/>
		<ellipse fill="#603813" cx="10.746" cy="71.919" rx="2.939" ry="4.203"/>
	</g>
	<g>
		<rect x="24.146" y="34.813" fill="#754C24" width="78.244" height="27.044"/>
		<ellipse fill="#8C6239" cx="24.942" cy="48.334" rx="9.454" ry="13.523"/>
		<rect x="24.146" y="48.334" fill="#8C6239" width="78.244" height="13.523"/>
		<ellipse fill="#754C24" cx="102.379" cy="48.334" rx="9.455" ry="13.523"/>
		<ellipse fill="#754C24" cx="23.652" cy="48.334" rx="9.454" ry="13.523"/>
		<ellipse fill="#8C6239" cx="23.652" cy="48.334" rx="8.056" ry="11.523"/>
		<ellipse fill="#754C24" cx="23.652" cy="48.334" rx="6.335" ry="9.061"/>
		<g>
			<defs>
				<ellipse id="SVGID_3_" cx="102.379" cy="48.334" rx="9.455" ry="13.523"/>
			</defs>
			<clipPath id="SVGID_4_">
				<use xlink:href="#SVGID_3_"  overflow="visible"/>
			</clipPath>
			<rect x="42.011" y="48.333" clip-path="url(#SVGID_4_)" fill="#8C6239" width="78.245" height="13.524"/>
		</g>
		<ellipse fill="#8C6239" cx="23.653" cy="48.688" rx="4.48" ry="6.407"/>
		<ellipse fill="#754C24" cx="23.652" cy="48.688" rx="2.938" ry="4.203"/>
	</g>
	<g>
		<rect x="31.891" y="60.626" fill="#603813" width="78.243" height="27.044"/>
		<ellipse fill="#754C24" cx="32.686" cy="74.147" rx="9.454" ry="13.522"/>
		<rect x="31.891" y="74.147" fill="#754C24" width="78.243" height="13.522"/>
		<ellipse fill="#603813" cx="110.123" cy="74.147" rx="9.454" ry="13.522"/>
		<ellipse fill="#603813" cx="31.396" cy="74.147" rx="9.454" ry="13.522"/>
		<ellipse fill="#754C24" cx="31.396" cy="74.147" rx="8.056" ry="11.522"/>
		<ellipse fill="#603813" cx="31.396" cy="74.147" rx="6.335" ry="9.062"/>
		<g>
			<defs>
				<ellipse id="SVGID_5_" cx="110.123" cy="74.147" rx="9.454" ry="13.522"/>
			</defs>
			<clipPath id="SVGID_6_">
				<use xlink:href="#SVGID_5_"  overflow="visible"/>
			</clipPath>
			<rect x="49.755" y="74.146" clip-path="url(#SVGID_6_)" fill="#754C24" width="78.244" height="13.523"/>
		</g>
		<ellipse fill="#754C24" cx="31.396" cy="74.5" rx="4.48" ry="6.408"/>
		<ellipse fill="#603813" cx="31.396" cy="74.5" rx="2.938" ry="4.204"/>
	</g>
</g>
<g>
	<g id="XMLID_1_">
		<g>
			<polygon fill="#603813" points="24.94,44.92 33.13,55.1 32.69,56.08 23.65,48.59 			"/>
		</g>
		<g>
		</g>
	</g>
</g>
<g id="XMLID_2_">
	<g>
		<polygon fill="#42210B" points="32.69,56.08 23.65,48.59 23.96,47.71 		"/>
	</g>
	<g>
	</g>
</g>
<rect x="32.266" y="54.393" fill="#603813" width="1.656" height="0.707"/>
<g>
	<defs>
		<ellipse id="SVGID_7_" cx="102.379" cy="48.334" rx="9.455" ry="13.523"/>
	</defs>
	<clipPath id="SVGID_8_">
		<use xlink:href="#SVGID_7_"  overflow="visible"/>
	</clipPath>
	<rect x="32.686" y="54.393" clip-path="url(#SVGID_8_)" fill="#603813" width="79.314" height="1.687"/>
</g>
<rect x="32.686" y="54.393" fill="#603813" width="74.517" height="1.687"/>
<g>
	<g>
		<g id="XMLID_3_">
			<g>
				<polygon fill="#8C6239" points="47.531,36.125 44.187,42.27 43.836,41.735 43.167,41.735 43.184,32.359 				"/>
			</g>
			<g>
			</g>
		</g>
	</g>
	<g>
		<g id="XMLID_4_">
			<g>
				<polygon fill="#603813" points="43.535,31.17 47.882,34.936 44.538,41.081 44.187,40.545 43.519,40.545 				"/>
			</g>
			<g>
			</g>
		</g>
	</g>
</g>
<g>
	<g>
		<g id="XMLID_6_">
			<g>
				<polygon fill="#8C6239" points="84.458,76.058 93.834,76.074 90.068,80.421 83.923,77.077 84.458,76.718 				"/>
			</g>
			<g>
			</g>
		</g>
	</g>
	<g>
		<g id="XMLID_5_">
			<g>
				<polygon fill="#603813" points="91.258,80.764 85.112,77.42 85.648,77.077 85.648,76.4 95.023,76.417 				"/>
			</g>
			<g>
			</g>
		</g>
	</g>
</g>
<g>
	<g>
		<g id="XMLID_8_">
			<g>
				<polygon fill="#8C6239" points="91.517,44.266 87.294,52.025 86.851,51.35 86.007,51.35 86.027,39.51 				"/>
			</g>
			<g>
			</g>
		</g>
	</g>
	<g>
		<g id="XMLID_7_">
			<g>
				<polygon fill="#603813" points="91.96,42.764 87.737,50.523 87.294,49.848 86.449,49.848 86.471,38.008 				"/>
			</g>
			<g>
			</g>
		</g>
	</g>
</g>
</svg>
