<?xml version="1.0" encoding="utf-8"?>
<!-- Generator: Adobe Illustrator 16.0.0, SVG Export Plug-In . SVG Version: 6.00 Build 0)  -->
<!DOCTYPE svg PUBLIC "-//W3C//DTD SVG 1.1//EN" "http://www.w3.org/Graphics/SVG/1.1/DTD/svg11.dtd">
<svg version="1.1" id="Laag_1" xmlns="http://www.w3.org/2000/svg" xmlns:xlink="http://www.w3.org/1999/xlink" x="0px" y="0px"
	 width="120px" height="120px" viewBox="0 0 120 120" enable-background="new 0 0 120 120" xml:space="preserve">
<g>
	<g>
		
			<rect x="11.828" y="48.964" transform="matrix(0.9455 -0.3256 0.3256 0.9455 -17.5674 19.9912)" fill="#603813" width="78.243" height="27.045"/>
		
			<ellipse transform="matrix(0.9455 -0.3256 0.3256 0.9455 -23.6088 8.8762)" fill="#754C24" cx="14.712" cy="74.965" rx="9.454" ry="13.521"/>
		
			<rect x="14.029" y="62.119" transform="matrix(0.9455 -0.3256 0.3256 0.9455 -19.5287 21.0561)" fill="#754C24" width="78.243" height="13.522"/>
		
			<ellipse transform="matrix(0.9455 -0.3256 0.3256 0.9455 -11.4077 31.3374)" fill="#603813" cx="87.93" cy="49.754" rx="9.454" ry="13.521"/>
		
			<ellipse transform="matrix(0.9455 -0.3255 0.3255 0.9455 -23.8055 8.4981)" fill="#603813" cx="13.491" cy="75.385" rx="9.454" ry="13.521"/>
		
			<ellipse transform="matrix(0.9455 -0.3255 0.3255 0.9455 -23.8067 8.4989)" fill="#754C24" cx="13.492" cy="75.385" rx="8.056" ry="11.523"/>
		
			<ellipse transform="matrix(0.9455 -0.3256 0.3256 0.9455 -23.8071 8.499)" fill="#603813" cx="13.492" cy="75.386" rx="6.335" ry="9.061"/>
		<g>
			<defs>
				
					<ellipse id="SVGID_1_" transform="matrix(0.9455 -0.3256 0.3256 0.9455 -11.4077 31.3374)" cx="87.93" cy="49.754" rx="9.454" ry="13.522"/>
			</defs>
			<clipPath id="SVGID_2_">
				<use xlink:href="#SVGID_1_"  overflow="visible"/>
			</clipPath>
			
				<rect x="30.92" y="56.301" transform="matrix(0.9455 -0.3256 0.3256 0.9455 -16.715 26.239)" clip-path="url(#SVGID_2_)" fill="#754C24" width="78.244" height="13.523"/>
		</g>
		
			<ellipse transform="matrix(0.9455 -0.3255 0.3255 0.9455 -23.9087 8.5543)" fill="#754C24" cx="13.607" cy="75.718" rx="4.48" ry="6.408"/>
		
			<ellipse transform="matrix(0.9455 -0.3255 0.3255 0.9455 -23.9078 8.5539)" fill="#603813" cx="13.607" cy="75.718" rx="2.938" ry="4.203"/>
	</g>
	<g>
		
			<rect x="31.019" y="58.953" transform="matrix(0.9455 -0.3256 0.3256 0.9455 -19.7743 26.7843)" fill="#603813" width="78.243" height="27.044"/>
		
			<ellipse transform="matrix(0.9455 -0.3256 0.3256 0.9455 -25.8114 15.6666)" fill="#754C24" cx="33.903" cy="84.952" rx="9.454" ry="13.522"/>
		
			<rect x="33.22" y="72.107" transform="matrix(0.9455 -0.3256 0.3256 0.9455 -21.7356 27.8491)" fill="#754C24" width="78.243" height="13.522"/>
		
			<ellipse transform="matrix(0.9455 -0.3255 0.3255 0.9455 -13.6133 38.1263)" fill="#603813" cx="107.121" cy="59.742" rx="9.454" ry="13.522"/>
		
			<ellipse transform="matrix(0.9455 -0.3256 0.3256 0.9455 -26.0146 15.2922)" fill="#603813" cx="32.682" cy="85.372" rx="9.454" ry="13.523"/>
		
			<ellipse transform="matrix(0.9455 -0.3256 0.3256 0.9455 -26.0165 15.2938)" fill="#754C24" cx="32.682" cy="85.372" rx="8.056" ry="11.522"/>
		
			<ellipse transform="matrix(0.9455 -0.3256 0.3256 0.9455 -26.0136 15.2914)" fill="#603813" cx="32.682" cy="85.372" rx="6.335" ry="9.062"/>
		<g>
			<defs>
				
					<ellipse id="SVGID_3_" transform="matrix(0.9455 -0.3255 0.3255 0.9455 -13.6133 38.1263)" cx="107.121" cy="59.742" rx="9.454" ry="13.522"/>
			</defs>
			<clipPath id="SVGID_4_">
				<use xlink:href="#SVGID_3_"  overflow="visible"/>
			</clipPath>
			
				<rect x="50.112" y="66.289" transform="matrix(0.9455 -0.3256 0.3256 0.9455 -18.921 33.0303)" clip-path="url(#SVGID_4_)" fill="#754C24" width="78.243" height="13.524"/>
		</g>
		
			<ellipse transform="matrix(0.9455 -0.3256 0.3256 0.9455 -26.1159 15.3469)" fill="#754C24" cx="32.797" cy="85.706" rx="4.48" ry="6.408"/>
		
			<ellipse transform="matrix(0.9455 -0.3255 0.3255 0.9455 -26.1117 15.3437)" fill="#603813" cx="32.798" cy="85.706" rx="2.939" ry="4.204"/>
	</g>
	<g>
		
			<rect x="24.953" y="33.797" transform="matrix(0.9455 -0.3256 0.3256 0.9455 -11.9151 23.4397)" fill="#754C24" width="78.244" height="27.045"/>
		
			<ellipse transform="matrix(0.9455 -0.3256 0.3256 0.9455 -17.9523 12.3214)" fill="#8C6239" cx="27.836" cy="59.797" rx="9.454" ry="13.523"/>
		
			<rect x="27.154" y="46.951" transform="matrix(0.9455 -0.3256 0.3256 0.9455 -13.8766 24.5046)" fill="#8C6239" width="78.244" height="13.523"/>
		
			<ellipse transform="matrix(0.9455 -0.3255 0.3255 0.9455 -5.7545 34.7805)" fill="#754C24" cx="101.055" cy="34.586" rx="9.455" ry="13.522"/>
		
			<ellipse transform="matrix(0.9455 -0.3256 0.3256 0.9455 -18.1555 11.9469)" fill="#754C24" cx="26.616" cy="60.217" rx="9.454" ry="13.524"/>
		
			<ellipse transform="matrix(0.9455 -0.3256 0.3256 0.9455 -18.1559 11.9475)" fill="#8C6239" cx="26.617" cy="60.217" rx="8.056" ry="11.523"/>
		
			<ellipse transform="matrix(0.9455 -0.3255 0.3255 0.9455 -18.1532 11.9449)" fill="#754C24" cx="26.616" cy="60.217" rx="6.336" ry="9.061"/>
		<g>
			<defs>
				
					<ellipse id="SVGID_5_" transform="matrix(0.9455 -0.3255 0.3255 0.9455 -5.7545 34.7805)" cx="101.055" cy="34.586" rx="9.455" ry="13.522"/>
			</defs>
			<clipPath id="SVGID_6_">
				<use xlink:href="#SVGID_5_"  overflow="visible"/>
			</clipPath>
			
				<rect x="44.045" y="41.134" transform="matrix(0.9455 -0.3256 0.3256 0.9455 -11.0622 29.6861)" clip-path="url(#SVGID_6_)" fill="#8C6239" width="78.245" height="13.524"/>
		</g>
		
			<ellipse transform="matrix(0.9455 -0.3255 0.3255 0.9455 -18.2561 12.0011)" fill="#8C6239" cx="26.732" cy="60.551" rx="4.48" ry="6.407"/>
		
			<ellipse transform="matrix(0.9455 -0.3255 0.3255 0.9455 -18.2555 12.0004)" fill="#754C24" cx="26.732" cy="60.551" rx="2.938" ry="4.203"/>
	</g>
</g>
<g>
	<g id="XMLID_1_">
		<g>
			<polygon fill="#603813" points="25.752,58.521 37.931,63.255 38.039,64.323 26.467,62.346 			"/>
		</g>
		<g>
		</g>
	</g>
</g>
<g id="XMLID_2_">
	<g>
		<polygon fill="#42210B" points="14.738,74.646 4.376,69.129 4.502,68.205 		"/>
	</g>
	<g>
	</g>
</g>
<g>
	<defs>
		
			<ellipse id="SVGID_7_" transform="matrix(0.9462 -0.3235 0.3235 0.9462 -5.7544 34.5483)" cx="101.055" cy="34.585" rx="9.455" ry="13.524"/>
	</defs>
	<clipPath id="SVGID_8_">
		<use xlink:href="#SVGID_7_"  overflow="visible"/>
	</clipPath>
	
		<rect x="35.209" y="49.989" transform="matrix(0.9462 -0.3235 0.3235 0.9462 -12.4177 26.9489)" clip-path="url(#SVGID_8_)" fill="#603813" width="79.314" height="1.688"/>
</g>
<g>
	<g>
		<g id="XMLID_3_">
			<g>
				<polygon fill="#8C6239" points="63.016,41.015 60.977,47.707 60.525,47.253 59.87,47.388 58,38.201 				"/>
			</g>
			<g>
			</g>
		</g>
	</g>
	<g>
		<g id="XMLID_4_">
			<g>
				<polygon fill="#603813" points="58.104,36.965 63.12,39.78 61.081,46.471 60.63,46.018 59.975,46.152 				"/>
			</g>
			<g>
			</g>
		</g>
	</g>
</g>
<g>
	<g>
		<g id="XMLID_6_">
			<g>
				<polygon fill="#8C6239" points="85.315,58.882 94.502,57.012 91.688,62.027 84.996,59.989 85.448,59.529 				"/>
			</g>
			<g>
			</g>
		</g>
	</g>
	<g>
		<g id="XMLID_5_">
			<g>
				<polygon fill="#603813" points="92.922,62.124 86.23,60.085 86.686,59.642 86.55,58.979 95.736,57.108 				"/>
			</g>
			<g>
			</g>
		</g>
	</g>
</g>
<g>
	<g>
		<g id="XMLID_8_">
			<g>
				<polygon fill="#8C6239" points="75.555,74.97 66.735,75.467 67.076,74.734 66.632,74.017 76.707,67.8 				"/>
			</g>
			<g>
			</g>
		</g>
	</g>
	<g>
		<g id="XMLID_7_">
			<g>
				<polygon fill="#603813" points="77.065,74.556 68.245,75.053 68.586,74.32 68.142,73.603 78.218,67.386 				"/>
			</g>
			<g>
			</g>
		</g>
	</g>
</g>
<rect x="35.693" y="50.279" transform="matrix(0.9462 -0.3235 0.3235 0.9462 -12.5566 26.6949)" fill="#603813" width="76.677" height="1.689"/>
<rect x="35.281" y="62.487" fill="#603813" width="3" height="1"/>
<g>
	<g>
		<g id="XMLID_10_">
			<g>
				<polygon fill="#8C6239" points="98.918,35.377 97.665,39.493 97.387,39.213 96.984,39.296 95.834,33.646 				"/>
			</g>
			<g>
			</g>
		</g>
	</g>
	<g>
		<g id="XMLID_9_">
			<g>
				<polygon fill="#603813" points="98.982,34.617 97.729,38.732 97.451,38.454 97.048,38.536 95.897,32.886 				"/>
			</g>
			<g>
			</g>
		</g>
	</g>
</g>
</svg>
