<?xml version="1.0" encoding="UTF-8"?>
<svg xmlns="http://www.w3.org/2000/svg" xmlns:xlink="http://www.w3.org/1999/xlink" width="600" height="600">
<defs>
  <radialGradient id="rg" gradientUnits="userSpaceOnUse" cx="220" cy="220" r="405">
    <stop style="stop-color:#fff;stop-opacity:.3" offset="0"/>
    <stop style="stop-color:#fff;stop-opacity:.2" offset=".2"/>
    <stop style="stop-color:#666;stop-opacity:.1" offset=".6"/>
    <stop style="stop-color:#000;stop-opacity:.13" offset="1"/>
  </radialGradient>
  <circle id="shield" cx="300" cy="300" r="298"/>
</defs>
<use id="background" xlink:href="#shield" fill="#f80"/>
<path fill="#ff0" stroke="#f80" stroke-width="2" d="m 412.30553,455.73458 c 1.7944,-1.19898 2.28964,-3.69578 1.09066,-5.49018 -1.19898,-1.7944 -3.69416,-2.29072 -5.48856,-1.09175 l -11.7299,7.83767 c -1.7944,1.19898 -2.29234,3.69525 -1.09336,5.48965 1.19898,1.79439 3.69687,2.29126 5.49127,1.09228 z M 261.9468,229.96957 398.32989,434.08342 386.07693,442.27059 250.10515,238.74082 m 156.76473,210.92312 -7.29669,-15.15562 -13.88368,9.27677 10.93258,12.50037 z m 33.51465,60.79132 -33.94259,-51.03325 m 44.78587,66.90231 -0.39642,-0.59329 -20.28874,-67.15591 c 0,0 -4.02793,2.70149 -10.38767,1.29501 -10.6511,-2.74523 -4.56561,-5.80811 -13.56044,0.20203 -9.85372,5.72064 -3.63152,3.42802 -5.02095,12.21366 -1.13425,6.41401 -5.20155,9.12137 -5.20155,9.12137 l 54.27982,44.4438 0.39642,0.59328 -0.0981,-0.34097 0.27759,0.22102 z"/>
<path fill="#c00" d="m 300,75 c -13.62764,18.187994 -14.7587,37.358523 -11.35338,57.255633 3.37716,19.73229 1.86698,38.88973 -10.26314,55.75188 -6.02002,-22.34209 -17.30287,-37.32697 -32.10528,-47.33082 -17.67053,-11.94222 -27.0654,-27.58421 -32.36843,-48.533841 -5.63006,22.018581 0.63056,40.138661 11.391,57.218041 10.66568,16.929 16.61987,35.2056 11.87969,55.41354 -14.11046,-18.33078 -30.28137,-27.85151 -47.78196,-31.42856 -20.8955,-4.27099 -35.57979,-15.11806 -48.49623,-32.44361 3.22465,22.49705 15.96628,36.83477 32.44361,48.49621 16.34177,11.5655 28.83456,26.18881 32.18044,46.69175 -20.05693,-11.54286 -38.62376,-14.18274 -56.16541,-10.78948 -20.93937,4.0505 -38.65458,-0.32715 -57.218047,-11.39098 11.588457,19.55055 28.848127,27.90026 48.533857,32.36842 19.51603,4.42963 36.61848,13.17924 47.55637,30.82706 -22.93117,-2.98029 -41.07684,1.69827 -55.97743,11.54141 -17.79541,11.75533 -35.871343,14.47109 -57.255647,11.35336 18.187968,13.62766 37.358527,14.75873 57.255647,11.35339 19.73227,-3.37714 38.88973,-1.86699 55.75186,10.26312 -22.34207,6.02003 -37.32695,17.30286 -47.3308,32.10527 -11.94225,17.67055 -27.58422,27.06539 -48.533856,32.36845 22.018576,5.63009 40.138666,-0.63059 57.218046,-11.39099 16.92898,-10.66568 35.20559,-16.6199 55.41352,-11.8797 -18.33076,14.11046 -27.85152,30.28137 -31.42855,47.78196 -4.27097,20.89547 -15.11804,35.57987 -32.44361,48.49612 22.49705,-3.22449 36.83479,-15.96607 48.49623,-32.4435 11.5655,-16.34179 26.1888,-28.83459 46.69172,-32.18044 -11.54287,20.05693 -14.18274,38.62386 -10.78945,56.16536 4.0505,20.9394 -0.32714,38.65456 -11.391,57.21799 19.55055,-11.58837 27.90025,-28.84804 32.36843,-48.53369 4.43327,-19.53206 13.18767,-36.65734 30.8647,-47.59403 -2.9915,22.95001 1.6553,41.14403 11.50372,56.0526 11.75533,17.7954 14.47108,35.83378 11.35338,57.218 13.62765,-18.18792 14.75879,-37.32085 11.35337,-57.218 -3.37714,-19.73237 -1.83139,-38.92522 10.30078,-55.78946 6.02097,22.32989 17.27086,37.36821 32.06766,47.36846 17.67052,11.9423 27.06541,27.54657 32.36842,48.49612 5.63009,-22.01847 -0.6305,-40.10101 -11.39096,-57.18042 -10.6719,-16.93874 -16.59857,-35.2641 -11.8421,-55.48867 14.10915,18.33209 30.24374,27.88914 47.74437,31.46618 20.89548,4.27082 35.57982,15.11806 48.49622,32.4435 -3.22465,-22.49707 -15.96624,-36.83471 -32.44361,-48.49612 -16.34175,-11.56544 -28.79901,-26.22437 -32.14285,-46.72935 20.0466,11.53229 38.59349,14.21895 56.1278,10.82709 20.93937,-4.05056 38.65467,0.32718 57.21804,11.39099 -11.58846,-19.55061 -28.84807,-27.9003 -48.53383,-32.36845 -19.51602,-4.42962 -36.58198,-13.21415 -47.51878,-30.86468 22.91491,2.97174 41.0849,-1.66597 55.97745,-11.50371 17.79536,-11.75534 35.83378,-14.4711 57.21803,-11.35339 -18.18798,-13.62768 -37.32091,-14.75877 -57.21803,-11.35336 -19.73227,3.37716 -38.92532,1.83138 -55.7895,-10.30079 22.32977,-6.02102 37.36835,-17.27087 47.36843,-32.06768 11.94223,-17.67051 27.54665,-27.06541 48.49623,-32.36842 -22.01853,-5.63007 -40.10106,0.63052 -57.18041,11.39098 -16.93885,10.67188 -35.26417,16.59858 -55.48875,11.84209 18.33205,-14.10913 27.88915,-30.24376 31.46617,-47.74436 4.27096,-20.89551 15.1181,-35.5798 32.44361,-48.49621 -22.49706,3.22464 -36.8348,15.96624 -48.49622,32.44361 -11.56551,16.34174 -26.22441,28.79898 -46.72936,32.14286 11.53224,-20.04663 14.21895,-38.59353 10.82709,-56.12784 -4.05052,-20.9394 0.32717,-38.65464 11.39096,-57.218041 -19.55052,11.588441 -27.90026,28.848091 -32.36842,48.533841 -4.42738,19.50608 -13.19462,36.58129 -30.82705,47.5188 2.97039,-22.91361 -1.70361,-41.04732 -11.54139,-55.93986 -11.75533,-17.79538 -14.47112,-35.871328 -11.35337,-57.255633 z"/>
<path fill="#ff0" d="m 287.79103,291.87689 -127.2575,-190.48577 4.4e-4,-2.9e-4 0,0 c -0.01,-0.0908 -2.89331,-5.471761 1.11964,-8.153132 3.47985,-2.325161 7.06027,0.909868 7.91496,1.818305 l 127.111,190.237047 c -4.13272,0.3711 -7.29491,2.9059 -8.88854,6.58384 z"/>
<use id="shine" xlink:href="#shield" fill="url(#rg)" stroke="#000" stroke-width="3"/>
</svg>